<svg xmlns="http://www.w3.org/2000/svg" enable-background="new 0 0 3000 3000" viewBox="0 0 3000 3000"><ellipse cx="711.2" cy="2557.1" fill="#eee" rx="686.2" ry="67.3"/><path fill="#58595b" d="M1680.8,1405L1680.8,1405c-59.4,0-107.6-48.2-107.6-107.6v-111.4h215.2v111.4
						C1788.4,1356.9,1740.2,1405,1680.8,1405z"/><path fill="#ffa726" d="M1954.2,850.6c2.7,83.1-31.7,158.2-87.9,210c-39.5,36.4-62.3,87.3-62.3,141v19.2
						c0,12.2-9.9,22.1-22.1,22.1h-202.1c-12.2,0-22.1-9.9-22.1-22.1v-17.5c0-53.6-21.5-105.6-61.1-141.7
						c-54.8-50-89.2-122-89.2-202.1c0-154.8,128.6-279.6,284.7-273.3C1834.3,592.1,1949.6,708.4,1954.2,850.6z"/><path fill="#f7991c" d="M1866.3,1060.6c-39.5,36.4-62.3,87.3-62.3,141.1v19.2c0,12.2-9.9,22-22.1,22h-26.4
						c12.2,0,22.1-9.9,22.1-22v-19.2c0-53.7,22.9-104.7,62.3-141.1c56.2-51.8,90.6-126.9,87.9-210
						c-4.5-141.7-118.9-257.6-260.3-264.2c8.1-0.4,16.3-0.4,24.5-0.1c142.2,5.7,257.6,122,262.1,264.3
						C1956.8,933.7,1922.5,1008.8,1866.3,1060.6z"/><path fill="#bdbdbd" d="M1785.4,1294h-209.2c-9.4,0-16.9-7.6-16.9-16.9l0,0c0-9.4,7.6-16.9,16.9-16.9h209.2
						c9.4,0,16.9,7.6,16.9,16.9l0,0C1802.4,1286.4,1794.8,1294,1785.4,1294z"/><path fill="#bdbdbd" d="M1785.4,1345h-209.2c-9.4,0-16.9-7.6-16.9-16.9l0,0c0-9.4,7.6-16.9,16.9-16.9h209.2
						c9.4,0,16.9,7.6,16.9,16.9l0,0C1802.4,1337.5,1794.8,1345,1785.4,1345z"/><path fill="#414042" d="M1713.3,1243h-8.3V994.7h-48.4V1243h-8.3V994.7h-41.7c-27.6,0-50-22.4-50-50v-1.9c0-27.6,22.4-50,50-50
							c27.6,0,50,22.4,50,50v43.6h48.4v-43.6c0-27.6,22.4-50,50-50c27.6,0,50,22.4,50,50v1.9c0,27.6-22.4,50-50,50h-41.7V1243z
							 M1713.3,986.4h41.7c23,0,41.7-18.7,41.7-41.7v-1.9c0-23-18.7-41.7-41.7-41.7c-23,0-41.7,18.7-41.7,41.7V986.4z M1606.6,901.1
							c-23,0-41.7,18.7-41.7,41.7v1.9c0,23,18.7,41.7,41.7,41.7h41.7v-43.6C1648.3,919.8,1629.6,901.1,1606.6,901.1z"/><path fill="#ffb24d" d="M1676.6,627.8l-2.3,10c-4.1,18-17.7,32.2-35.4,37.6c-83.9,25.5-152.2,80.9-200,176.1
						c12-121.1,80.6-204,226.9-234.6C1672.3,615.5,1678,621.3,1676.6,627.8z"/><path fill="#f7991c" d="M1680.4,375.6c5.5,25.4,6.8,50.9,7,76.7c-0.2,25.7-1.4,51.3-7,76.7c-5.6-25.4-6.9-50.9-7-76.7
						C1673.6,426.6,1674.9,401,1680.4,375.6L1680.4,375.6z"/><path fill="#f7991c" d="M1347.2,516.9c21.8,14,40.8,31.2,59.2,49.3c18.1,18.3,35.3,37.3,49.3,59.2c-21.9-14-40.9-31.2-59.2-49.3
						C1378.4,557.7,1361.2,538.7,1347.2,516.9L1347.2,516.9z"/><path fill="#f7991c" d="M1211.5,852.4c25.4-5.5,50.9-6.8,76.7-7c25.7,0.2,51.3,1.4,76.7,7c-25.4,5.6-50.9,6.9-76.7,7
						C1262.4,859.3,1236.8,858,1211.5,852.4L1211.5,852.4z"/><path fill="#f7991c" d="M1352.7,1185.7c14-21.8,31.2-40.8,49.3-59.2c18.3-18.1,37.3-35.3,59.2-49.3c-14,21.9-31.2,40.9-49.3,59.2
						C1393.6,1154.5,1374.6,1171.6,1352.7,1185.7L1352.7,1185.7z"/><path fill="#f7991c" d="M2021.5,1180.1c-21.8-14-40.8-31.2-59.2-49.3c-18.1-18.3-35.3-37.3-49.3-59.2c21.9,14,40.9,31.2,59.2,49.3
						C1990.3,1139.3,2007.5,1158.3,2021.5,1180.1L2021.5,1180.1z"/><path fill="#f7991c" d="M2157.2,844.6c-25.4,5.5-50.9,6.8-76.7,7c-25.7-0.2-51.3-1.4-76.7-7c25.4-5.6,50.9-6.9,76.7-7
						C2106.3,837.8,2131.9,839.1,2157.2,844.6L2157.2,844.6z"/><path fill="#f7991c" d="M2016,511.4c-14,21.8-31.2,40.8-49.3,59.2c-18.3,18.1-37.3,35.3-59.2,49.3c14-21.9,31.2-40.9,49.3-59.2
						C1975.1,542.5,1994.1,525.4,2016,511.4L2016,511.4z"/><g><path fill="#f7c19b" d="M1555,1424.8l-344.9-110.4c-15.5-5-32.5-0.9-44.1,10.6h0c-19.8,19.7-16.2,52.8,7.4,67.8l201.5,128.1
							c21.9,13.9,44.8,26.3,68.5,36.9l202.2,90.8c31.2,14,61.1,30.8,89.3,50.2l0,0c27,18.6,61.8,21.4,91.4,7.5l179.4-84.4
							c29.3-13.8,61.4-21,93.8-21h174.2v-272.9l-54.6-4.2c-24.4-1.9-48.2-8.4-70.5-18.4c-46.3-20.8-148.5-47.4-284.3,30.2
							c0,0-85.9,50.8-207.6,43.2c-27.9-1.7-55.8-1.7-83.8-1.1l-10.7,0.2c-27.8,0.6-51.1,21-55.4,48.4l0,0
							c-3.9,24.8,8.7,49.5,31.4,60.3c49.7,23.7,107.7,42,173.5,55.1l222.4-40.3"/><path fill="#eab896" d="M1511.7,1411c-7.5,20.7-4.1,45.5,12.1,60.9c16.4,14.6,39.4,19.5,59.4,27.6
							c38.4,14.6,97.1,27.5,127.4,35.3c74.8-11.8,149.8-22.3,225.1-29.4c-36.9,8.6-74,16.2-111.2,23.3c-38,6.9-76.1,14.8-114.3,19.8
							c-44.7-9.1-88.8-21.2-131.2-38.2c-20.8-9.6-44.6-16.2-60.7-33.4C1502.6,1458.6,1500.6,1431.9,1511.7,1411L1511.7,1411z"/><polygon fill="#f5f5f5" points="2391.2 1644.8 2201.8 1644.8 2221.1 1296.7 2391.2 1296.7"/><polygon fill="#414042" points="2975 1676.8 2247.8 1676.8 2272.5 1276 2975 1205"/><path fill="#f5f5f5" d="M2329.8,1630.6c0,9.2-7.5,16.7-16.7,16.7s-16.7-7.5-16.7-16.7c0-9.2,7.5-16.7,16.7-16.7
					S2329.8,1621.4,2329.8,1630.6z"/><path fill="#f5f5f5" d="M2386.7,1630.6c0,9.2-7.5,16.7-16.7,16.7c-9.2,0-16.7-7.5-16.7-16.7c0-9.2,7.5-16.7,16.7-16.7
					C2379.3,1613.9,2386.7,1621.4,2386.7,1630.6z"/><path fill="#f5f5f5" d="M2443.7,1630.6c0,9.2-7.5,16.7-16.7,16.7s-16.7-7.5-16.7-16.7c0-9.2,7.5-16.7,16.7-16.7
					S2443.7,1621.4,2443.7,1630.6z"/></g><g><path fill="#f7c19b" d="M477,1090.1c-29.5,51.2-56.2,46.2-80.3-12.1l-1.7-58.9l77,5.1L477,1090.1z"/><path fill="#f7c19b" d="M856.1,1241.7l14.8-25.3c2.4-4,3-8.9,1.7-13.4l-5.4-19.4c-1-3.7,1-7.5,4.6-8.7l0,0c3-0.9,6.2,0.2,7.8,2.9
					l9.6,15.1c2.6,4,8,4.8,11.6,1.7l36-31.4c2.8-2.5,7-2.2,9.5,0.6l0,0c6.6,7.7-18.8,27.9-21.4,30.6l1.8-1.7l0.7-0.8
					c3.1-3.1,8.1-2.9,11,0.4l0,0c2.6,3.1,2.3,7.6-0.5,10.4l-10.9,10.3l4.2-4.2c3-2.9,9.6-11.3,15.3-5.4l0,0c2.8,3,2.6,7.8-0.3,10.7
					l-18.4,17.6l19.5-18.9c2.9-2.8,7.5-2.7,10.3,0.2l0,0c2.7,2.8,2.8,7.3,0.2,10.3c-19.6,22.1-37.5,37.2-64.8,58L856.1,1241.7z"/><polygon fill="#f7c19b" points="180.9 2502.1 117.4 2471.5 163.3 2373 226.8 2403.6"/><path fill="#333" d="M120.1,2497.8l-14.1,10.2l-4,3.5c-2.3,2-4,4.7-4.9,7.7l-3.4,11.7c-0.8,2.9,0.8,5.9,3.6,6.8l12.7,3.8
							l1-3.3l6.9,2.1l-0.9,3.3l15.2,4.9l0.8-2.7l7.2,2.2l-0.8,2.9l17.2,5l12.1-8.8c12.5,8.1,23.4,16.7,32.1,26
							c0.4,0.5,17.7,5.8,17.9,5.4l0.8-2.6l6.7,2l-0.8,2.6c5.5,2.1,11,3.7,16.5,5l0.8-2.8l6.6,2l-0.6,2.2c5.8,1.7,11.1,2.6,15.9,2.7
							l0.6-2.2l6.8,1.1l-0.6,1.9c4,0.6,7.9,0.6,11.7,0.2l0.3-2.3l6.6-0.7l0.6,2.5c7.2-0.7,13.8-1.8,19.7-3.3c0,0,3.6-8.6-1.6-10.7
							l-67.4-28.7l-85.9-39.3L120.1,2497.8z"/><path fill="#58595b" d="M108.9,2487.5c-1.3,4.4-2.1,8.9-2.4,13.4l-0.5,7.1c27,7.6,51.4,17.1,72,29.5c4.3,2.6,8.4,5.3,12.4,8.1
							c33.8,24.6,73.5,34.1,118.2,30.7l1.8-6.4c1.4-4.7-0.7-9.8-5-12.1l-28.1-15.1c-5-2.7-10.1-5.2-15.1-7.8
							c-14.2-7.3-26.3-17.5-36.6-30.3c-0.6-0.7-1.1-1.4-1.7-2.1c-0.3-0.4-0.6-0.8-1-1.3c-2.7,6.4-11.4,12.7-11.8,13
							c-0.3,0.2-0.6,0.2-0.9,0.1c-0.1-0.1-0.3-0.2-0.4-0.3c-0.3-0.4-0.2-0.9,0.2-1.2c3.1-2.2,10-8.2,11.6-13.2
							c-0.2-0.3-0.5-0.6-0.7-0.9c-4.8-3-14.2-3.6-18.2-3.5c-0.5,0-0.9-0.4-0.9-0.9c0-0.5,0.4-0.9,0.9-0.9c0.5,0,9.6-0.2,16.2,2.3
							c-0.8-1.2-1.6-2.3-2.3-3.5c-0.5-0.8-1-1.5-1.4-2.3c-1-1.6-2-3.3-3-5c-0.4-0.7-0.8-1.4-1.2-2.1c-1.4-2.6-2.8-5.2-4.1-7.9
							c-4.3-0.9-10.6,0.4-13.2,1.3c-0.5,0.1-1-0.1-1.1-0.6c-0.1-0.5,0.1-1,0.6-1.1c0.4-0.1,7.2-2.2,12.8-1.5
							c-0.5-1.1-1.1-2.2-1.6-3.3c-0.9-1.8-2.4-3.2-4.3-3.9l-68.8-23.4c-2.5-0.9-5.2,0.6-5.9,3.2l-2.2,8.4
							c-1.6,6.2-4.1,12.2-7.4,17.7C112.8,2476.6,110.5,2481.9,108.9,2487.5z"/><path fill="#231f20" d="M209.9,2514c0.1,0.1,0.2,0.2,0.4,0.3c0.3,0.1,0.6,0.1,0.9-0.1c0.5-0.3,9.1-6.6,11.8-13
							c-0.4-0.5-0.8-1.1-1.2-1.7c-1.6,5-8.5,11-11.6,13.2C209.7,2513.1,209.6,2513.6,209.9,2514z"/><path fill="#231f20" d="M201.9,2494.3c0,0.5,0.4,0.9,0.9,0.9c4-0.1,13.4,0.4,18.2,3.5c-0.7-1-1.4-2-2.1-3
							c-6.6-2.5-15.6-2.3-16.2-2.3C202.3,2493.4,201.9,2493.8,201.9,2494.3z"/><path fill="#303030" d="M192.5,2475.6c0.1,0.5,0.6,0.7,1.1,0.6c2.7-0.8,8.9-2.2,13.2-1.3c-0.3-0.6-0.6-1.3-1-2
							c-5.6-0.7-12.4,1.4-12.8,1.5C192.6,2474.6,192.3,2475.1,192.5,2475.6z"/><path fill="#414042" d="M108.9,2487.5c-1.3,4.4-2.1,8.9-2.4,13.4l-0.5,7.1c27,7.6,51.4,17.1,72,29.5l41.4-13.9
							c2.4-0.8,3.6-3.5,2.6-5.9l-21.9-52l-68.8-23.4c-2.5-0.9-5.2,0.6-5.9,3.2l-2.2,8.4c-1.6,6.2-4.1,12.2-7.4,17.7
							C112.8,2476.6,110.5,2481.9,108.9,2487.5z"/><polygon fill="#58595b" points="197.8 2468.6 198.5 2468.3 198.2 2467.7 197.6 2467.4 197.3 2468.2 197.7 2468.3"/><path fill="#58595b" d="M109,2503.7l0.8,0.1l-0.1,1.1l-0.8-0.1L109,2503.7z M109.2,2501.5l0.8,0.1l-0.1,1.1l-0.8-0.1
										L109.2,2501.5z M109.3,2499.4l0.8,0.1c0,0.4-0.1,0.7-0.1,1.1l-0.8-0.1C109.3,2500.1,109.3,2499.8,109.3,2499.4z
										 M109.6,2497.3l0.8,0.1c0,0.3-0.1,0.7-0.1,1.1l-0.8-0.1C109.5,2498,109.5,2497.6,109.6,2497.3z M109.9,2495.2l0.8,0.1
										c-0.1,0.3-0.1,0.7-0.2,1l-0.8-0.1C109.8,2495.9,109.8,2495.5,109.9,2495.2z M110.3,2493l0.8,0.2c-0.1,0.3-0.1,0.7-0.2,1
										l-0.8-0.1C110.1,2493.7,110.2,2493.4,110.3,2493z M110.7,2490.9l0.8,0.2c-0.1,0.3-0.2,0.7-0.2,1l-0.8-0.2
										C110.6,2491.6,110.7,2491.3,110.7,2490.9z M111.3,2488.9l0.8,0.2c-0.1,0.3-0.2,0.7-0.3,1l-0.8-0.2
										C111.1,2489.6,111.2,2489.2,111.3,2488.9z M111.6,2487.8c0.1-0.3,0.2-0.7,0.3-1l0.7,0.2c-0.1,0.3-0.2,0.7-0.3,1
										L111.6,2487.8z M112.2,2485.8c0.1-0.3,0.2-0.7,0.3-1l0.7,0.3c-0.1,0.3-0.2,0.7-0.3,1L112.2,2485.8z M112.9,2483.8
										c0.1-0.3,0.3-0.7,0.4-1l0.7,0.3c-0.1,0.3-0.3,0.7-0.4,1L112.9,2483.8z M113.7,2481.8c0.1-0.3,0.3-0.7,0.4-1l0.7,0.3
										c-0.1,0.3-0.3,0.6-0.4,1L113.7,2481.8z M114.5,2479.8c0.1-0.3,0.3-0.6,0.4-1l0.7,0.3c-0.2,0.3-0.3,0.6-0.4,1L114.5,2479.8z
										 M115.4,2477.9c0.2-0.3,0.3-0.6,0.5-1l0.7,0.4c-0.2,0.3-0.3,0.6-0.5,0.9L115.4,2477.9z M116.4,2476
										c0.2-0.3,0.3-0.6,0.5-0.9l0.7,0.4c-0.2,0.3-0.3,0.6-0.5,0.9L116.4,2476z M117.4,2474.1c0.2-0.3,0.4-0.6,0.5-0.9l0.7,0.4
										c-0.2,0.3-0.4,0.6-0.5,0.9L117.4,2474.1z M118.5,2472.3c0.2-0.3,0.4-0.6,0.5-0.9l0.7,0.4c-0.2,0.3-0.4,0.6-0.5,0.9
										L118.5,2472.3z M119.6,2470.5c0.2-0.3,0.3-0.6,0.5-0.9l0.7,0.4c-0.2,0.3-0.3,0.6-0.5,0.9L119.6,2470.5z M120.6,2468.6
										c0.2-0.3,0.3-0.6,0.5-0.9l0.7,0.4c-0.2,0.3-0.3,0.6-0.5,1L120.6,2468.6z M121.5,2466.7c0.1-0.3,0.3-0.6,0.4-1l0.7,0.3
										c-0.1,0.3-0.3,0.7-0.4,1L121.5,2466.7z M122.4,2464.8c0.1-0.3,0.3-0.6,0.4-1l0.7,0.3c-0.1,0.3-0.3,0.7-0.4,1L122.4,2464.8z
										 M123.2,2462.8c0.1-0.3,0.3-0.7,0.4-1l0.7,0.3c-0.1,0.3-0.3,0.7-0.4,1L123.2,2462.8z M123.9,2460.8c0.1-0.3,0.2-0.7,0.3-1
										l0.7,0.3c-0.1,0.3-0.2,0.7-0.4,1L123.9,2460.8z M124.6,2458.8c0.1-0.3,0.2-0.7,0.3-1l0.7,0.2c-0.1,0.3-0.2,0.7-0.3,1
										L124.6,2458.8z M125.5,2455.8l0.8,0.2c-0.1,0.3-0.2,0.7-0.3,1l-0.7-0.2C125.3,2456.5,125.4,2456.1,125.5,2455.8z
										 M126,2453.7l0.8,0.2l-0.3,1l-0.8-0.2L126,2453.7z M126.5,2451.7l0.8,0.2l-0.3,1l-0.8-0.2L126.5,2451.7z M127,2449.6
										l0.8,0.2l-0.3,1l-0.8-0.2L127,2449.6z M127.6,2447.5l0.8,0.2l-0.3,1l-0.8-0.2L127.6,2447.5z M195.4,2467.5l0.2-0.8l1,0.3
										l-0.2,0.8L195.4,2467.5z M193.4,2466.8l0.2-0.8l1,0.3l-0.2,0.8L193.4,2466.8z M191.4,2466.2l0.2-0.8l1,0.3l-0.2,0.8
										L191.4,2466.2z M189.4,2465.5l0.2-0.8l1,0.3l-0.2,0.8L189.4,2465.5z M187.4,2464.8l0.2-0.8l1,0.3l-0.2,0.8L187.4,2464.8z
										 M185.4,2464.1l0.2-0.8l1,0.3l-0.2,0.8L185.4,2464.1z M183.4,2463.4l0.2-0.8l1,0.3l-0.2,0.8L183.4,2463.4z M181.4,2462.8
										l0.2-0.8l1,0.3l-0.2,0.8L181.4,2462.8z M179.4,2462.1l0.2-0.8l1,0.3l-0.2,0.8L179.4,2462.1z M177.4,2461.4l0.2-0.8l1,0.3
										l-0.3,0.7L177.4,2461.4z M127.9,2446.4c0.2-0.4,0.4-0.7,0.7-1l0.5,0.6c-0.2,0.2-0.4,0.4-0.5,0.7L127.9,2446.4z
										 M175.5,2460.7l0.2-0.8l1,0.3l-0.2,0.8L175.5,2460.7z M173.5,2460.1l0.2-0.8l1,0.3l-0.2,0.8L173.5,2460.1z M171.5,2459.4
										l0.2-0.8l1,0.3l-0.3,0.7L171.5,2459.4z M169.5,2458.7l0.2-0.8l1,0.3l-0.3,0.7L169.5,2458.7z M167.5,2458l0.2-0.8l1,0.3
										l-0.3,0.7L167.5,2458z M165.5,2457.3l0.2-0.8l1,0.3l-0.3,0.7L165.5,2457.3z M163.5,2456.7l0.2-0.8l1,0.3l-0.2,0.8
										L163.5,2456.7z M161.5,2456l0.2-0.8l1,0.3l-0.2,0.8L161.5,2456z M159.6,2455.3l0.2-0.8l1,0.3l-0.2,0.8L159.6,2455.3z
										 M157.6,2454.6l0.2-0.8l1,0.3l-0.2,0.8L157.6,2454.6z M155.6,2454l0.2-0.8l1,0.3l-0.2,0.8L155.6,2454z M153.6,2453.3
										l0.2-0.8l1,0.3l-0.2,0.8L153.6,2453.3z M151.6,2452.6l0.2-0.8l1,0.3l-0.2,0.8L151.6,2452.6z M149.6,2451.9l0.2-0.8l1,0.3
										l-0.2,0.8L149.6,2451.9z M147.6,2451.2l0.2-0.8l1,0.3l-0.2,0.8L147.6,2451.2z M145.6,2450.6l0.2-0.8l1,0.3l-0.2,0.8
										L145.6,2450.6z M143.6,2449.9l0.2-0.8l1,0.3l-0.2,0.8L143.6,2449.9z M141.7,2449.2l0.2-0.8l1,0.3l-0.2,0.8L141.7,2449.2z
										 M139.7,2448.5l0.2-0.8l1,0.3l-0.2,0.8L139.7,2448.5z M129.7,2444.9c0.4-0.1,0.8-0.2,1.2-0.1l-0.1,0.8
										c-0.3,0-0.6,0-0.9,0.1L129.7,2444.9z M137.7,2447.9l0.2-0.8l1,0.3l-0.2,0.8L137.7,2447.9z M135.7,2447.2l0.3-0.8l1,0.3
										l-0.2,0.8L135.7,2447.2z M133.7,2446.5l0.2-0.8l1,0.3l-0.2,0.8L133.7,2446.5z M131.7,2445.8l0.2-0.8l1,0.3l-0.2,0.8
										L131.7,2445.8z"/><polygon fill="#58595b" points="108.8 2506.5 109.6 2506.8 109.8 2506 109.6 2505.9 109.6 2505.7 108.9 2505.7"/><path fill="#58595b" d="M175.6,2533.5l0.4-0.7l0.9,0.5l-0.4,0.7L175.6,2533.5z M173.8,2532.5l0.4-0.7l0.9,0.5l-0.4,0.7
										L173.8,2532.5z M172,2531.5l0.4-0.7l0.9,0.5l-0.4,0.7L172,2531.5z M170.2,2530.5l0.4-0.7l0.9,0.5l-0.4,0.7L170.2,2530.5z
										 M168.3,2529.5l0.4-0.7l0.9,0.5l-0.4,0.7L168.3,2529.5z M166.5,2528.5l0.4-0.7l0.9,0.5l-0.4,0.7L166.5,2528.5z
										 M164.7,2527.6l0.3-0.7l0.9,0.5l-0.4,0.7L164.7,2527.6z M162.8,2526.7l0.3-0.7l0.9,0.5l-0.3,0.7L162.8,2526.7z
										 M160.9,2525.8l0.3-0.7l0.9,0.5l-0.3,0.7L160.9,2525.8z M159.1,2524.9l0.3-0.7l0.9,0.4l-0.3,0.7L159.1,2524.9z M157.2,2524
										l0.3-0.7l0.9,0.4l-0.3,0.7L157.2,2524z M155.3,2523.2l0.3-0.7l0.9,0.4l-0.3,0.7L155.3,2523.2z M153.4,2522.3l0.3-0.7
										l0.9,0.4l-0.3,0.7L153.4,2522.3z M151.5,2521.5l0.3-0.7l1,0.4l-0.3,0.7L151.5,2521.5z M149.6,2520.7l0.3-0.7l1,0.4
										l-0.3,0.7L149.6,2520.7z M147.7,2519.9l0.3-0.7l1,0.4l-0.3,0.7L147.7,2519.9z M145.8,2519.1l0.3-0.7l1,0.4l-0.3,0.7
										L145.8,2519.1z M143.9,2518.3l0.3-0.7l1,0.4l-0.3,0.7L143.9,2518.3z M142,2517.6l0.3-0.7l1,0.4l-0.3,0.7L142,2517.6z
										 M140,2516.8l0.3-0.7l1,0.4l-0.3,0.7L140,2516.8z M138.1,2516.1l0.3-0.7l1,0.4l-0.3,0.7L138.1,2516.1z M136.2,2515.4
										l0.3-0.7l1,0.4l-0.3,0.7L136.2,2515.4z M134.2,2514.6l0.3-0.7l1,0.4l-0.3,0.7L134.2,2514.6z M132.3,2514l0.3-0.7l1,0.3
										l-0.3,0.7L132.3,2514z M130.3,2513.3l0.3-0.8l1,0.3l-0.3,0.8L130.3,2513.3z M128.4,2512.6l0.2-0.8l1,0.3l-0.3,0.8
										L128.4,2512.6z M126.4,2511.9l0.2-0.8l1,0.3l-0.2,0.8L126.4,2511.9z M124.4,2511.3l0.2-0.8l1,0.3l-0.2,0.8L124.4,2511.3z
										 M122.5,2510.7l0.2-0.8l1,0.3l-0.2,0.8L122.5,2510.7z M120.5,2510l0.2-0.8l1,0.3l-0.2,0.8L120.5,2510z M118.5,2509.4
										l0.2-0.8l1,0.3l-0.2,0.8L118.5,2509.4z M110.8,2506.3l1,0.3l-0.2,0.8l-1-0.3L110.8,2506.3z M116.5,2508.8l0.2-0.8l1,0.3
										l-0.2,0.8L116.5,2508.8z M112.8,2506.9l1,0.3l-0.2,0.8l-1-0.3L112.8,2506.9z M114.6,2508.2l0.2-0.8l1,0.3l-0.2,0.8
										L114.6,2508.2z"/><polygon fill="#58595b" points="178 2534.9 178.6 2534.7 178.4 2533.9 178.1 2534 177.8 2533.9 177.4 2534.6"/><path fill="#58595b" d="M179.4,2533.6l1-0.3l0.2,0.8l-1,0.3L179.4,2533.6z M181.3,2532.9l1-0.3l0.2,0.8l-1,0.3L181.3,2532.9z
										 M183.3,2532.3l1-0.3l0.2,0.8l-1,0.3L183.3,2532.3z M185.3,2531.6l1-0.3l0.2,0.8l-1,0.3L185.3,2531.6z M187.2,2531l1-0.3
										l0.2,0.8l-1,0.3L187.2,2531z M189.2,2530.3l1-0.3l0.2,0.8l-1,0.3L189.2,2530.3z M191.1,2529.7l1-0.3l0.2,0.8l-1,0.3
										L191.1,2529.7z M193.1,2529l1-0.3l0.2,0.8l-1,0.3L193.1,2529z M195.1,2528.3l1-0.3l0.2,0.8l-1,0.3L195.1,2528.3z
										 M197,2527.7l1-0.3l0.2,0.8l-1,0.3L197,2527.7z M199,2527l1-0.3l0.2,0.8l-1,0.3L199,2527z M200.9,2526.4l1-0.3l0.2,0.8
										l-1,0.3L200.9,2526.4z M202.9,2525.7l1-0.3l0.2,0.8l-1,0.3L202.9,2525.7z M204.9,2525.1l1-0.3l0.2,0.8l-1,0.3L204.9,2525.1
										z M206.8,2524.4l1-0.3l0.2,0.8l-1,0.3L206.8,2524.4z M208.8,2523.7l1-0.3l0.2,0.8l-1,0.3L208.8,2523.7z M210.7,2523.1
										l1-0.3l0.2,0.8l-1,0.3L210.7,2523.1z M212.7,2522.4l1-0.3l0.2,0.8l-1,0.3L212.7,2522.4z M214.7,2521.8l1-0.3l0.2,0.8
										l-1,0.3L214.7,2521.8z M216.6,2521.1l1-0.3l0.2,0.8l-1,0.3L216.6,2521.1z M218.3,2520.3c0.2-0.2,0.3-0.3,0.4-0.6
										c0-0.1,0-0.1,0.1-0.2l0.7,0.3c0,0.1-0.1,0.2-0.1,0.2c-0.1,0.3-0.3,0.6-0.5,0.8L218.3,2520.3z M218.7,2518.3l-0.2-0.5
										l0.7-0.3l0.2,0.5c0.1,0.2,0.1,0.4,0.2,0.6l-0.8,0.1C218.8,2518.6,218.8,2518.5,218.7,2518.3z M217.7,2516l0.7-0.3l0.4,1
										l-0.7,0.3L217.7,2516z M216.9,2514l0.7-0.3l0.4,1l-0.7,0.3L216.9,2514z M216.1,2512.1l0.7-0.3l0.4,1l-0.7,0.3L216.1,2512.1
										z M215.3,2510.2l0.7-0.3l0.4,1l-0.7,0.3L215.3,2510.2z M214.5,2508.2l0.7-0.3l0.4,1l-0.7,0.3L214.5,2508.2z M213.7,2506.3
										l0.7-0.3l0.4,1l-0.7,0.3L213.7,2506.3z M212.9,2504.4l0.7-0.3l0.4,1l-0.7,0.3L212.9,2504.4z M212,2502.4l0.7-0.3l0.4,1
										l-0.7,0.3L212,2502.4z M211.2,2500.5l0.7-0.3l0.4,1l-0.7,0.3L211.2,2500.5z M210.4,2498.6l0.7-0.3l0.4,1l-0.7,0.3
										L210.4,2498.6z M209.6,2496.6l0.7-0.3l0.4,1l-0.7,0.3L209.6,2496.6z M208.8,2494.7l0.7-0.3l0.4,1l-0.7,0.3L208.8,2494.7z
										 M208,2492.8l0.7-0.3l0.4,1l-0.7,0.3L208,2492.8z M207.2,2490.8l0.7-0.3l0.4,1l-0.7,0.3L207.2,2490.8z M206.3,2488.9
										l0.7-0.3l0.4,1l-0.7,0.3L206.3,2488.9z M205.5,2487l0.7-0.3l0.4,1l-0.7,0.3L205.5,2487z M204.7,2485l0.7-0.3l0.4,1
										l-0.7,0.3L204.7,2485z M203.9,2483.1l0.7-0.3l0.4,1l-0.7,0.3L203.9,2483.1z M203.1,2481.2l0.7-0.3l0.4,1l-0.7,0.3
										L203.1,2481.2z M202.3,2479.3l0.7-0.3l0.4,1l-0.7,0.3L202.3,2479.3z M201.5,2477.3l0.7-0.3l0.4,1l-0.7,0.3L201.5,2477.3z
										 M200.6,2475.4l0.7-0.3l0.4,1l-0.7,0.3L200.6,2475.4z M199.8,2473.5l0.7-0.3l0.4,1l-0.7,0.3L199.8,2473.5z M199,2471.5
										l0.7-0.3l0.4,1l-0.7,0.3L199,2471.5z M198.2,2469.6l0.7-0.3l0.4,1l-0.7,0.3L198.2,2469.6z"/><path fill="#e6e7e8" d="M206.7,2511.8c0.9-2.1,3.2-3,5.3-2.1c2,0.9,3,3.3,2.1,5.4c-0.9,2.1-3.2,3-5.3,2.1
										C206.7,2516.2,205.8,2513.8,206.7,2511.8z M207.8,2512.3c-0.6,1.4,0,3.1,1.4,3.7c1.4,0.6,3,0,3.6-1.5
										c0.6-1.4,0-3.1-1.4-3.7C210.1,2510.2,208.4,2510.9,207.8,2512.3z"/><path fill="#e6e7e8" d="M198.1,2493.1c0.9-2.1,3.2-3,5.3-2.1c2,0.9,3,3.3,2.1,5.4c-0.9,2.1-3.2,3-5.3,2.1
										C198.1,2497.6,197.2,2495.1,198.1,2493.1z M199.2,2493.6c-0.6,1.4,0,3.1,1.4,3.7c1.4,0.6,3,0,3.6-1.5
										c0.6-1.4,0-3.1-1.4-3.7C201.4,2491.5,199.8,2492.2,199.2,2493.6z"/><path fill="#231f20" d="M210.1,2512.8c-0.4,0.3-0.5,0.8-0.2,1.2c0.1,0.1,0.2,0.2,0.4,0.3c0.3,0.1,0.6,0.1,0.9-0.1
										c0.5-0.3,9.1-6.6,11.8-13c0.1-0.2,0.2-0.4,0.2-0.6c0.3-0.7,0.4-1.4,0.5-2.1c0.1-0.8,0.1-1.5-0.1-2.3
										c-0.7-3-3.5-5.1-8.5-6.4c0.5,0.8,1,1.5,1.4,2.3c3.1,1.1,4.9,2.6,5.3,4.5c0,0.2,0.1,0.3,0.1,0.5c0.1,0.6,0,1.3-0.2,2
										c0,0.1-0.1,0.3-0.1,0.4C220.2,2504.6,213.2,2510.6,210.1,2512.8z"/><path fill="#231f20" d="M201.9,2494.3c0,0.5,0.4,0.9,0.9,0.9c4-0.1,13.4,0.4,18.2,3.5c0.3,0.2,0.5,0.4,0.8,0.5
										c0.6,0.4,1,0.9,1.4,1.5c0.2,0.2,0.3,0.5,0.4,0.7c0.2,0.4,0.3,0.8,0.3,1.2c0.6,0.7,1.1,1.4,1.7,2.1c0.3-1.5,0.1-2.8-0.4-4
										c-0.3-0.8-0.8-1.5-1.5-2.1c-0.5-0.5-1.1-1-1.7-1.4c-0.9-0.6-2-1.1-3.1-1.5c-6.6-2.5-15.6-2.3-16.2-2.3
										C202.3,2493.4,201.9,2493.8,201.9,2494.3z"/><path fill="#e6e7e8" d="M189.5,2474.2c0.6-2.2,2.9-3.4,5-2.7c2.1,0.6,3.3,2.9,2.7,5.1c-0.6,2.2-2.9,3.4-5,2.7
									C190,2478.6,188.8,2476.3,189.5,2474.2z M190.7,2474.5c-0.4,1.5,0.4,3.1,1.9,3.5c1.5,0.4,3-0.4,3.4-1.9
									c0.4-1.5-0.4-3.1-1.9-3.5C192.6,2472.2,191.1,2473,190.7,2474.5z"/><path fill="#231f20" d="M192.5,2475.6c0.1,0.5,0.6,0.7,1.1,0.6c2.7-0.8,8.9-2.2,13.2-1.3c1.5,0.3,2.7,0.9,3.5,1.8
									c1.2,1.3,1.4,3.3,0.7,6.1c0.4,0.7,0.8,1.4,1.2,2.1c1.4-4.1,1.2-7.2-0.6-9.3c-1.3-1.5-3.4-2.3-5.7-2.6
									c-5.6-0.7-12.4,1.4-12.8,1.5C192.6,2474.6,192.3,2475.1,192.5,2475.6z"/><polygon fill="#f7c19b" points="597.1 2518.5 527.6 2521.2 523.5 2412.3 593 2409.5"/><path fill="#333" d="M527.3,2535l-11.4,13.3l-3.1,4.4c-1.8,2.5-2.8,5.6-3,8.7l-0.6,12.2c-0.1,3,2.1,5.6,5.1,5.7l13.3,0.6
							l0.2-3.5l7.2,0.4l-0.2,3.4l15.9,1.1l0.1-2.8l7.5,0.4l-0.1,3.1l17.8,0.8l9.7-11.4c14,4.9,26.6,10.7,37.2,17.6
							c0.5,0.4,18.5,1.4,18.6,0.9l0.1-2.7l7,0.3l-0.1,2.7c5.8,0.7,11.5,1,17.2,0.8l0.1-2.9l6.9,0.3l-0.1,2.3c6,0.3,11.4-0.1,16-1.2
							l0.1-2.2l6.9-0.5l-0.1,2c4.1-0.4,7.9-1.3,11.5-2.6l-0.2-2.3l6.2-2.3l1.2,2.3c6.8-2.4,13-5,18.4-7.9c0,0,1.5-9.3-4.1-10
							l-72.2-11.7l-92.6-17.6L527.3,2535z"/><path fill="#58595b" d="M514,2527.6c-0.2,4.5,0,9.1,0.8,13.6l1.1,7.1c28,0.9,53.9,4.3,76.8,11.4c4.8,1.5,9.4,3.1,13.9,4.9
							c38.6,15.8,79.4,15.5,122,1.4l0.3-6.7c0.2-4.9-3-9.3-7.7-10.6l-30.8-8c-5.5-1.4-11-2.7-16.5-4c-15.5-3.7-29.6-10.7-42.6-20.6
							c-0.7-0.5-1.4-1.1-2.1-1.7c-0.4-0.3-0.8-0.7-1.2-1c-1.2,6.9-8.1,15.1-8.5,15.5c-0.2,0.2-0.5,0.3-0.8,0.3
							c-0.1,0-0.3-0.1-0.4-0.2c-0.4-0.3-0.4-0.9-0.1-1.3c2.5-2.9,7.9-10.4,8.2-15.6c-0.3-0.2-0.6-0.5-0.9-0.7
							c-5.4-1.8-14.7-0.1-18.5,1c-0.5,0.1-0.9-0.2-1.1-0.6c-0.1-0.5,0.2-1,0.6-1.1c0.5-0.1,9.3-2.5,16.2-1.7c-1-0.9-2.1-1.9-3.1-2.9
							c-0.6-0.6-1.3-1.2-1.9-1.9c-1.4-1.3-2.8-2.7-4.1-4.2c-0.5-0.6-1.1-1.1-1.6-1.7c-2-2.1-3.9-4.3-5.9-6.6
							c-4.4,0.1-10.1,3-12.6,4.4c-0.4,0.3-1,0.1-1.2-0.3c-0.3-0.4-0.1-1,0.3-1.2c0.4-0.2,6.5-3.9,12.1-4.6c-0.8-0.9-1.5-1.9-2.3-2.8
							c-1.2-1.6-3-2.6-5-2.7l-72.3-6.3c-2.6-0.2-4.9,1.9-5,4.6l-0.1,8.7c-0.1,6.5-1.2,12.8-3.1,19
							C515.3,2516.1,514.3,2521.9,514,2527.6z"/><path fill="#231f20" d="M618.4,2529.2c0.1,0.1,0.3,0.2,0.4,0.2c0.3,0,0.6-0.1,0.8-0.3c0.4-0.4,7.3-8.6,8.5-15.5
							c-0.5-0.4-1.1-0.9-1.6-1.3c-0.4,5.3-5.7,12.7-8.2,15.6C618,2528.3,618,2528.8,618.4,2529.2z"/><path fill="#231f20" d="M606,2511.9c0.1,0.5,0.6,0.7,1.1,0.6c3.8-1.1,13.1-2.8,18.5-1c-0.9-0.8-1.8-1.6-2.7-2.4
							c-7-0.8-15.7,1.5-16.2,1.7C606.2,2510.9,605.9,2511.4,606,2511.9z"/><path fill="#303030" d="M592.5,2496c0.2,0.4,0.8,0.6,1.2,0.3c2.4-1.5,8.1-4.3,12.6-4.4c-0.5-0.6-0.9-1.1-1.4-1.7
							c-5.6,0.7-11.7,4.3-12.1,4.6C592.4,2495,592.3,2495.6,592.5,2496z"/><path fill="#414042" d="M514,2527.6c-0.2,4.5,0,9.1,0.8,13.6l1.1,7.1c28,0.9,53.9,4.3,76.8,11.4l37-23.4c2.1-1.4,2.7-4.3,1.2-6.3
							l-33.3-45.3l-72.3-6.3c-2.6-0.2-4.9,1.9-5,4.6l-0.1,8.7c-0.1,6.5-1.2,12.8-3.1,19C515.3,2516.1,514.3,2521.9,514,2527.6z"/><polygon fill="#58595b" points="596.1 2487.9 596.7 2487.5 596.3 2486.9 595.6 2486.8 595.5 2487.6 595.9 2487.7"/><path fill="#58595b" d="M517.9,2543.3l0.8-0.1l0.2,1.1l-0.8,0.1L517.9,2543.3z M517.6,2541.2l0.8-0.1l0.2,1.1l-0.8,0.1
										L517.6,2541.2z M517.2,2539.1l0.8-0.1c0,0.3,0.1,0.7,0.2,1l-0.8,0.1C517.3,2539.8,517.3,2539.4,517.2,2539.1z M517,2537
										l0.8-0.1c0,0.4,0.1,0.7,0.1,1.1l-0.8,0.1C517.1,2537.7,517,2537.3,517,2537z M516.8,2534.8l0.8-0.1c0,0.4,0.1,0.7,0.1,1.1
										l-0.8,0.1C516.9,2535.5,516.8,2535.2,516.8,2534.8z M516.7,2532.7l0.8,0c0,0.4,0,0.7,0,1.1l-0.8,0
										C516.7,2533.4,516.7,2533,516.7,2532.7z M516.7,2530.5h0.8c0,0.4,0,0.7,0,1.1l-0.8,0
										C516.7,2531.2,516.7,2530.9,516.7,2530.5z M516.7,2528.4l0.8,0c0,0.4,0,0.7,0,1.1l-0.8,0
										C516.7,2529.1,516.7,2528.7,516.7,2528.4z M516.7,2527.3c0-0.4,0-0.7,0.1-1.1l0.8,0.1c0,0.4,0,0.7-0.1,1.1L516.7,2527.3z
										 M516.9,2525.2c0-0.4,0.1-0.7,0.1-1.1l0.8,0.1c0,0.4-0.1,0.7-0.1,1.1L516.9,2525.2z M517.1,2523c0-0.4,0.1-0.7,0.1-1.1
										l0.8,0.1c0,0.3-0.1,0.7-0.1,1L517.1,2523z M517.4,2520.9c0.1-0.4,0.1-0.7,0.2-1.1l0.8,0.1c-0.1,0.3-0.1,0.7-0.2,1
										L517.4,2520.9z M517.8,2518.8c0.1-0.4,0.1-0.7,0.2-1.1l0.8,0.2c-0.1,0.3-0.1,0.7-0.2,1L517.8,2518.8z M518.2,2516.7
										c0.1-0.3,0.2-0.7,0.2-1l0.8,0.2c-0.1,0.3-0.2,0.7-0.2,1L518.2,2516.7z M518.7,2514.6c0.1-0.3,0.2-0.7,0.3-1l0.8,0.2
										c-0.1,0.3-0.2,0.7-0.3,1L518.7,2514.6z M519.3,2512.6c0.1-0.3,0.2-0.7,0.3-1l0.7,0.2c-0.1,0.3-0.2,0.7-0.3,1L519.3,2512.6z
										 M519.9,2510.5c0.1-0.3,0.2-0.7,0.3-1l0.7,0.2c-0.1,0.3-0.2,0.7-0.3,1L519.9,2510.5z M520.5,2508.5c0.1-0.3,0.2-0.7,0.3-1
										l0.8,0.2c-0.1,0.3-0.2,0.7-0.3,1L520.5,2508.5z M521,2506.4c0.1-0.3,0.2-0.7,0.2-1l0.8,0.2c-0.1,0.3-0.2,0.7-0.2,1
										L521,2506.4z M521.5,2504.4c0.1-0.3,0.1-0.7,0.2-1l0.8,0.1c-0.1,0.4-0.1,0.7-0.2,1.1L521.5,2504.4z M521.9,2502.3
										c0.1-0.3,0.1-0.7,0.2-1l0.8,0.1c-0.1,0.4-0.1,0.7-0.2,1.1L521.9,2502.3z M522.2,2500.2c0-0.3,0.1-0.7,0.1-1l0.8,0.1
										c0,0.4-0.1,0.7-0.1,1.1L522.2,2500.2z M522.5,2498.1c0-0.4,0.1-0.7,0.1-1.1l0.8,0.1c0,0.4-0.1,0.7-0.1,1.1L522.5,2498.1z
										 M522.6,2496c0-0.4,0-0.7,0.1-1.1l0.8,0c0,0.4,0,0.7-0.1,1.1L522.6,2496z M522.8,2492.8l0.8,0c0,0.4,0,0.7,0,1.1l-0.8,0
										C522.8,2493.5,522.8,2493.2,522.8,2492.8z M522.8,2490.7l0.8,0l0,1.1l-0.8,0L522.8,2490.7z M522.9,2488.6l0.8,0l0,1.1
										l-0.8,0L522.9,2488.6z M522.9,2486.4l0.8,0l0,1.1l-0.8,0L522.9,2486.4z M522.9,2484.3l0.8,0l0,1.1l-0.8,0L522.9,2484.3z
										 M593.4,2487.4l0.1-0.8l1,0.1l-0.1,0.8L593.4,2487.4z M591.4,2487.3l0.1-0.8l1,0.1l-0.1,0.8L591.4,2487.3z M589.3,2487.1
										l0.1-0.8l1,0.1l-0.1,0.8L589.3,2487.1z M587.2,2486.9l0.1-0.8l1,0.1l-0.1,0.8L587.2,2486.9z M585.1,2486.7l0.1-0.8l1,0.1
										l-0.1,0.8L585.1,2486.7z M583,2486.5l0.1-0.8l1,0.1l-0.1,0.8L583,2486.5z M580.9,2486.4l0.1-0.8l1,0.1l-0.1,0.8
										L580.9,2486.4z M578.8,2486.2l0.1-0.8l1,0.1l-0.1,0.8L578.8,2486.2z M576.7,2486l0.1-0.8l1,0.1l-0.1,0.8L576.7,2486z
										 M574.6,2485.8l0.1-0.8l1,0.1l-0.2,0.8L574.6,2485.8z M523,2483.2c0.1-0.4,0.2-0.8,0.5-1.1l0.6,0.5
										c-0.2,0.2-0.3,0.5-0.3,0.8L523,2483.2z M572.5,2485.6l0.1-0.8l1,0.1l-0.1,0.8L572.5,2485.6z M570.5,2485.5l0.1-0.8l1,0.1
										l-0.1,0.8L570.5,2485.5z M568.4,2485.3l0.1-0.8l1,0.1l-0.2,0.8L568.4,2485.3z M566.3,2485.1l0.1-0.8l1,0.1l-0.1,0.8
										L566.3,2485.1z M564.2,2484.9l0.1-0.8l1,0.1l-0.1,0.8L564.2,2484.9z M562.1,2484.7l0.1-0.8l1,0.1l-0.1,0.8L562.1,2484.7z
										 M560,2484.5l0.1-0.8l1,0.1l-0.1,0.8L560,2484.5z M557.9,2484.4l0.1-0.8l1,0.1l-0.1,0.8L557.9,2484.4z M555.8,2484.2
										l0.1-0.8l1,0.1l-0.1,0.8L555.8,2484.2z M553.7,2484l0.1-0.8l1,0.1l-0.1,0.8L553.7,2484z M551.7,2483.8l0.1-0.8l1,0.1
										l-0.1,0.8L551.7,2483.8z M549.6,2483.6l0.1-0.8l1,0.1l-0.1,0.8L549.6,2483.6z M547.5,2483.5l0.1-0.8l1,0.1l-0.1,0.8
										L547.5,2483.5z M545.4,2483.3l0.1-0.8l1,0.1l-0.1,0.8L545.4,2483.3z M543.3,2483.1l0.1-0.8l1,0.1l-0.1,0.8L543.3,2483.1z
										 M541.2,2482.9l0.1-0.8l1,0.1l-0.1,0.8L541.2,2482.9z M539.1,2482.7l0.1-0.8l1,0.1l-0.1,0.8L539.1,2482.7z M537,2482.6
										l0.1-0.8l1,0.1l-0.1,0.8L537,2482.6z M534.9,2482.4l0.1-0.8l1,0.1l-0.1,0.8L534.9,2482.4z M524.4,2481.2
										c0.3-0.2,0.7-0.3,1.1-0.4l0.1,0.8c-0.3,0-0.6,0.1-0.8,0.3L524.4,2481.2z M532.8,2482.2l0.1-0.8l1,0.1l-0.1,0.8
										L532.8,2482.2z M530.8,2482l0.1-0.8l1,0.1l-0.1,0.8L530.8,2482z M528.7,2481.8l0.1-0.8l1,0.1l-0.1,0.8L528.7,2481.8z
										 M526.6,2481.6l0.1-0.8l1.1,0.1l-0.1,0.8L526.6,2481.6z"/><polygon fill="#58595b" points="518.4 2546.1 519.2 2546.2 519.2 2545.4 519 2545.4 519 2545.2 518.2 2545.3"/><path fill="#58595b" d="M589.5,2556.3l0.2-0.8l1,0.3l-0.2,0.8L589.5,2556.3z M587.5,2555.8l0.2-0.8l1,0.3l-0.2,0.8
										L587.5,2555.8z M585.6,2555.2l0.2-0.8l1,0.3l-0.2,0.8L585.6,2555.2z M583.6,2554.7l0.2-0.8l1,0.3l-0.2,0.8L583.6,2554.7z
										 M581.6,2554.2l0.2-0.8l1,0.3l-0.2,0.8L581.6,2554.2z M579.5,2553.7l0.2-0.8l1,0.2l-0.2,0.8L579.5,2553.7z M577.5,2553.2
										l0.2-0.8l1,0.2l-0.2,0.8L577.5,2553.2z M575.5,2552.8l0.2-0.8l1,0.2l-0.2,0.8L575.5,2552.8z M573.5,2552.3l0.2-0.8l1,0.2
										l-0.2,0.8L573.5,2552.3z M571.5,2551.9l0.2-0.8l1,0.2l-0.2,0.8L571.5,2551.9z M569.5,2551.5l0.1-0.8l1,0.2l-0.1,0.8
										L569.5,2551.5z M567.4,2551.1l0.1-0.8l1,0.2l-0.1,0.8L567.4,2551.1z M565.4,2550.8l0.1-0.8l1,0.2l-0.1,0.8L565.4,2550.8z
										 M563.4,2550.4l0.1-0.8l1,0.2l-0.1,0.8L563.4,2550.4z M561.3,2550.1l0.1-0.8l1,0.2l-0.1,0.8L561.3,2550.1z M559.3,2549.8
										l0.1-0.8l1,0.2l-0.1,0.8L559.3,2549.8z M557.2,2549.5l0.1-0.8l1,0.2l-0.1,0.8L557.2,2549.5z M555.2,2549.2l0.1-0.8l1,0.1
										l-0.1,0.8L555.2,2549.2z M553.2,2548.9l0.1-0.8l1,0.1l-0.1,0.8L553.2,2548.9z M551.1,2548.6l0.1-0.8l1,0.1l-0.1,0.8
										L551.1,2548.6z M549.1,2548.4l0.1-0.8l1,0.1l-0.1,0.8L549.1,2548.4z M547,2548.1l0.1-0.8l1,0.1l-0.1,0.8L547,2548.1z
										 M545,2547.9l0.1-0.8l1,0.1l-0.1,0.8L545,2547.9z M542.9,2547.7l0.1-0.8l1,0.1l-0.1,0.8L542.9,2547.7z M540.8,2547.5
										l0.1-0.8l1,0.1l-0.1,0.8L540.8,2547.5z M538.8,2547.3l0.1-0.8l1,0.1l-0.1,0.8L538.8,2547.3z M536.7,2547.2l0.1-0.8l1,0.1
										l-0.1,0.8L536.7,2547.2z M534.7,2547l0.1-0.8l1,0.1l-0.1,0.8L534.7,2547z M532.6,2546.9l0.1-0.8l1,0.1l-0.1,0.8
										L532.6,2546.9z M530.6,2546.7l0-0.8l1,0.1l-0.1,0.8L530.6,2546.7z M528.5,2546.6l0-0.8l1,0.1l0,0.8L528.5,2546.6z
										 M520.3,2545.4l1,0l0,0.8l-1,0L520.3,2545.4z M526.4,2546.5l0-0.8l1,0.1l0,0.8L526.4,2546.5z M522.3,2545.5l1,0l0,0.8l-1,0
										L522.3,2545.5z M524.4,2546.4l0-0.8l1,0l0,0.8L524.4,2546.4z"/><polygon fill="#58595b" points="592.2 2557.1 592.8 2556.7 592.4 2556.1 592.1 2556.2 591.7 2556.1 591.5 2556.9"/><path fill="#58595b" d="M593.2,2555.5l0.9-0.6l0.4,0.7l-0.9,0.6L593.2,2555.5z M595,2554.4l0.9-0.6l0.4,0.7l-0.9,0.6
										L595,2554.4z M596.7,2553.3l0.9-0.6l0.4,0.7l-0.9,0.6L596.7,2553.3z M598.5,2552.2l0.9-0.6l0.4,0.7l-0.9,0.6L598.5,2552.2z
										 M600.2,2551.1l0.9-0.6l0.4,0.7l-0.9,0.6L600.2,2551.1z M602,2550l0.9-0.6l0.4,0.7l-0.9,0.6L602,2550z M603.8,2548.9
										l0.9-0.6l0.4,0.7l-0.9,0.6L603.8,2548.9z M605.5,2547.7l0.9-0.6l0.4,0.7l-0.9,0.6L605.5,2547.7z M607.3,2546.6l0.9-0.6
										l0.4,0.7l-0.9,0.6L607.3,2546.6z M609,2545.5l0.9-0.6l0.4,0.7l-0.9,0.6L609,2545.5z M610.8,2544.4l0.9-0.6l0.4,0.7
										l-0.9,0.6L610.8,2544.4z M612.5,2543.3l0.9-0.6l0.4,0.7l-0.9,0.6L612.5,2543.3z M614.3,2542.2l0.9-0.6l0.4,0.7l-0.9,0.6
										L614.3,2542.2z M616,2541.1l0.9-0.6l0.4,0.7l-0.9,0.6L616,2541.1z M617.8,2540l0.9-0.6l0.4,0.7l-0.9,0.6L617.8,2540z
										 M619.5,2538.9l0.9-0.6l0.4,0.7l-0.9,0.6L619.5,2538.9z M621.3,2537.8l0.9-0.6l0.4,0.7l-0.9,0.6L621.3,2537.8z M623,2536.6
										l0.9-0.6l0.4,0.7l-0.9,0.6L623,2536.6z M624.8,2535.5l0.9-0.6l0.4,0.7l-0.9,0.6L624.8,2535.5z M626.5,2534.4l0.9-0.6
										l0.4,0.7l-0.9,0.6L626.5,2534.4z M628,2533.3c0.1-0.2,0.2-0.4,0.2-0.6c0-0.1,0-0.1,0-0.2l0.8,0.1c0,0.1,0,0.2,0,0.3
										c-0.1,0.3-0.2,0.6-0.3,0.9L628,2533.3z M628,2531.2l-0.3-0.4l0.6-0.5l0.3,0.4c0.1,0.2,0.2,0.4,0.3,0.6l-0.7,0.3
										C628.1,2531.5,628,2531.3,628,2531.2z M626.4,2529.1l0.6-0.5l0.6,0.8l-0.6,0.5L626.4,2529.1z M625.2,2527.5l0.6-0.5
										l0.6,0.8l-0.6,0.5L625.2,2527.5z M623.9,2525.8l0.6-0.5l0.6,0.8l-0.6,0.5L623.9,2525.8z M622.7,2524.1l0.6-0.5l0.6,0.8
										l-0.6,0.5L622.7,2524.1z M621.5,2522.4l0.6-0.5l0.6,0.8l-0.6,0.5L621.5,2522.4z M620.2,2520.7l0.6-0.5l0.6,0.8l-0.6,0.5
										L620.2,2520.7z M619,2519.1l0.6-0.5l0.6,0.8l-0.6,0.5L619,2519.1z M617.8,2517.4l0.6-0.5l0.6,0.8l-0.6,0.5L617.8,2517.4z
										 M616.5,2515.7l0.6-0.5l0.6,0.8l-0.6,0.5L616.5,2515.7z M615.3,2514l0.6-0.5l0.6,0.8l-0.6,0.5L615.3,2514z M614,2512.3
										l0.6-0.5l0.6,0.8l-0.6,0.5L614,2512.3z M612.8,2510.6l0.6-0.5l0.6,0.8l-0.6,0.5L612.8,2510.6z M611.6,2509l0.6-0.5l0.6,0.8
										l-0.6,0.5L611.6,2509z M610.3,2507.3l0.6-0.5l0.6,0.8l-0.6,0.5L610.3,2507.3z M609.1,2505.6l0.6-0.5l0.6,0.8l-0.6,0.5
										L609.1,2505.6z M607.8,2503.9l0.6-0.5l0.6,0.8l-0.6,0.5L607.8,2503.9z M606.6,2502.2l0.6-0.5l0.6,0.8l-0.6,0.5
										L606.6,2502.2z M605.4,2500.6l0.6-0.5l0.6,0.8l-0.6,0.5L605.4,2500.6z M604.1,2498.9l0.6-0.5l0.6,0.8l-0.6,0.5
										L604.1,2498.9z M602.9,2497.2l0.6-0.5l0.6,0.8l-0.6,0.5L602.9,2497.2z M601.7,2495.5l0.6-0.5l0.6,0.8l-0.6,0.5
										L601.7,2495.5z M600.4,2493.8l0.6-0.5l0.6,0.8l-0.6,0.5L600.4,2493.8z M599.2,2492.1l0.6-0.5l0.6,0.8l-0.6,0.5
										L599.2,2492.1z M597.9,2490.5l0.6-0.5l0.6,0.8l-0.6,0.5L597.9,2490.5z M596.7,2488.8l0.6-0.5l0.6,0.8l-0.6,0.5
										L596.7,2488.8z"/><path fill="#e6e7e8" d="M614.7,2527.7c0.4-2.2,2.5-3.7,4.6-3.3c2.2,0.4,3.6,2.5,3.3,4.7c-0.4,2.2-2.5,3.7-4.6,3.3
										C615.8,2532.1,614.3,2530,614.7,2527.7z M615.9,2528c-0.3,1.5,0.8,3,2.3,3.3c1.5,0.3,2.9-0.8,3.2-2.3
										c0.3-1.5-0.8-3-2.3-3.2C617.6,2525.4,616.2,2526.4,615.9,2528z"/><path fill="#e6e7e8" d="M602,2511.6c0.4-2.2,2.5-3.7,4.6-3.3c2.2,0.4,3.6,2.5,3.3,4.7c-0.4,2.2-2.5,3.7-4.6,3.3
										C603.1,2516,601.6,2513.9,602,2511.6z M603.2,2511.9c-0.3,1.5,0.8,3,2.3,3.2c1.5,0.3,2.9-0.8,3.2-2.3
										c0.3-1.5-0.8-3-2.3-3.2C604.9,2509.3,603.5,2510.3,603.2,2511.9z"/><path fill="#231f20" d="M618.3,2527.9c-0.3,0.4-0.3,0.9,0.1,1.3c0.1,0.1,0.3,0.2,0.4,0.2c0.3,0,0.6-0.1,0.8-0.3
										c0.4-0.4,7.3-8.6,8.5-15.5c0-0.2,0.1-0.4,0.1-0.6c0.1-0.7,0.1-1.5,0-2.2c-0.1-0.8-0.3-1.5-0.6-2.2
										c-1.3-2.7-4.6-4.1-9.7-4.2c0.6,0.6,1.3,1.3,1.9,1.9c3.3,0.3,5.4,1.3,6.2,3.1c0.1,0.2,0.1,0.3,0.2,0.5
										c0.2,0.6,0.3,1.3,0.3,2c0,0.1,0,0.3,0,0.4C626.2,2517.5,620.8,2525,618.3,2527.9z"/><path fill="#231f20" d="M606,2511.9c0.1,0.5,0.6,0.7,1.1,0.6c3.8-1.1,13.1-2.8,18.5-1c0.3,0.1,0.6,0.2,0.9,0.3
										c0.6,0.3,1.2,0.6,1.7,1.1c0.2,0.2,0.4,0.4,0.5,0.6c0.2,0.3,0.4,0.7,0.6,1c0.7,0.6,1.4,1.1,2.1,1.7
										c-0.1-1.5-0.5-2.8-1.4-3.8c-0.5-0.7-1.2-1.2-1.9-1.7c-0.6-0.4-1.3-0.7-2-0.9c-1-0.3-2.1-0.6-3.3-0.7
										c-7-0.8-15.7,1.5-16.2,1.7C606.2,2510.9,605.9,2511.4,606,2511.9z"/><g><path fill="#e6e7e8" d="M589.3,2495.3c0.1-2.2,2-4,4.2-3.9c2.2,0.1,3.9,2,3.8,4.3c-0.1,2.2-2,4-4.2,3.9
									C590.9,2499.5,589.2,2497.6,589.3,2495.3z M590.5,2495.4c-0.1,1.6,1.1,2.9,2.6,3c1.5,0.1,2.8-1.1,2.9-2.7
									c0.1-1.5-1.1-2.9-2.6-3C591.9,2492.7,590.6,2493.8,590.5,2495.4z"/><path fill="#231f20" d="M592.5,2496c0.2,0.4,0.8,0.6,1.2,0.3c2.4-1.5,8.1-4.3,12.6-4.4c1.5-0.1,2.8,0.2,3.8,0.9
									c1.4,1,2.1,2.9,2.1,5.7c0.5,0.6,1.1,1.2,1.6,1.7c0.4-4.3-0.5-7.3-2.7-8.9c-1.7-1.2-3.9-1.4-6.2-1.1
									c-5.6,0.7-11.7,4.3-12.1,4.6C592.4,2495,592.3,2495.6,592.5,2496z"/></g><path fill="#333" d="M288.7,1622l-15.6,445.7l-140.5,349.2l88,28.1L370,2174.5c26.1-46.6,43.3-97.8,50.6-150.9l29.9-218.8
					l78.8,267.7l-20.1,383.8l101.6,9.1l46.1-342.1c7.9-51.7,8.3-104.2,1.3-156l-53.8-398.1L432.2,1540L288.7,1622z"/><g><path fill="#f1f2f2" d="M380.1,1110.4l16.6-32.4c22.7,32.2,49.2,37.7,80.3,12.1l84.2,135l-28.3,61.6l-5.4,221.2l-26.5,104.7
						c-18.4,27.3-47.9,30.8-83.5,20.9l-39.9-28.1l-54.4-220.9l-0.1-93.1c0,0,18.3-65.2,21.3-68.5
						C347.3,1219.6,380.1,1110.4,380.1,1110.4z"/><path fill="#1e88e5" d="M545.8,1449.1v-79.4L297.8,1319L285.4,1683c0,4,3.3,7.1,7.2,7c24-0.9,101.8-7.7,124.8-56.6
									c2.1-4.5-0.2-10.9-1.1-15.5c-1.5-7.7-2.7-15.4-3.7-23.1c-12-92.4,10.3-184.4,8.4-276.8c-1.5-73.9-14.8-147.9-22.2-221.4
									c-0.1-1-2-18.6-2-18.6c-114.6,47.4-125.9,88.3-169.1,232.8c-2.5,8.4-4.5,17.3-4,27c2.2,41.6,35.3,74.7,76.1,79L545.8,1449.1
									z"/><path fill="#1e88e5" d="M864.3,1212.7c0,0-136.2,105.7-143.2,102.2c-18.9-9.4-31.7-32.4-42.7-49.6
									c-25.7-40.2-55.1-81.6-91.6-112.5c-11.3-9.6-23.1-18.6-35.4-26.7c-11.1-7.3-22.6-14-34.5-19.8c-6.3-3.1-12.7-6-19.2-8.6
									c-2.3-1-19.1-6.4-20.7-7.5c3.8,19.1,7.7,38.1,11.5,57.2c7.2,35.9,10.3,70.6,7,107.4c-2.6,29.4-7,58.7-7.2,88.3
									c-0.2,34.6,7.4,67.8,11.6,101.8c7.7,63.4,1.9,128.2,0.4,191.9c-0.2,9.1,7.6,16.3,16.5,15.2c35.3-4.5,65.1-18.7,89.1-42.9
									c2.6-2.6,3.9-6.3,3.5-9.9c-4.7-42.2-10.2-84.3-16.3-126.4c-6.6-45.9-17-163.9-9.3-165.7c6.9-1.6,12.9,11.7,17.1,18
									c21.1,30.9,47.2,69.7,71.9,90.1c2.5,1.7,5.3,4.5,8.1,5.5c25.4,17.3,59.3,13.8,80.7-8.4l152.8-134.6L864.3,1212.7z"/></g><path fill="#eab896" d="M475.6,1072c0,0-43.9-1.4-63-28.7c0,0,17.7,32.8,63.9,40.4L475.6,1072z"/><g><polygon fill="#ef5350" points="776.8 1197.5 724.8 1413.4 602.9 1465.7 583.2 1474.2 564.9 1469.6 417 1432.6 463 1232.4 623.5 1252.7 638.8 1254.6 657.4 1247"/><polygon fill="#e54545" points="657.4 1247 602.9 1465.7 583.2 1474.2 564.9 1469.6 623.5 1252.7 638.8 1254.6"/></g><path fill="#f7c19b" d="M550.1,1381.9l23.9-7.5c4.5-0.9,8.5-3.7,10.9-7.7l10.5-17.2c2-3.3,6.2-4.3,9.4-2.4l0,0
					c2.7,1.6,3.9,4.8,3.1,7.8l-4.6,17.4c-1.2,4.6,1.9,9.3,6.5,9.9l47.1,5.9c3.7,0.5,6.3,3.8,5.9,7.6l0,0c-0.4,3.7-3.5,6.5-7.1,6.3
					l-26.6-1.1l30.1,1.3c4.4,0.2,7.6,4.1,7,8.5l0,0c-0.5,4-4,6.9-7.9,6.6l-44.3-3l35.3,2.1c4.1,0.3,7.2,3.9,6.9,8.1l0,0
					c-0.3,4.2-3.9,7.3-8,6.9l-47.3-3.9l35.8,2.8c4,0.3,7,3.8,6.7,7.9l0,0c-0.3,4-3.5,7-7.4,7.1c-29.3,0.2-61.3-4-94.8-10.5
					L550.1,1381.9z"/><polygon fill="#1e88e5" points="414.4 1342.8 555.1 1371.1 541.3 1445.5 354.9 1424 374.1 1384"/><path fill="#f7c19b" d="M512,921.4c0,0,25.9,79.8-0.2,124.3c-13.5,23.1-42.3,31.6-66.4,20.4c-18.4-8.5-45.5-24.8-66.5-52.7
					c-1.8-2.4,4.8-73.8,4.8-73.8l17.2-24l64.1-7.3L512,921.4z"/><path fill="#333" d="M443.4,985l-9.2-28c0,0,8.3,3.5,18.5,5.3c14.8,2.7,28.8-7.5,31.4-22.6l0.6-3.7c0,0,61.6-1.8,44-56.7
					c-4.5-13.9-16.7-23.9-31-24.9c-12.7-0.8-31,2.2-56.1,15c-9.4,4.8-20.7,3.4-30.5-0.6c-10.6-4.4-27.1-4.3-38.8,27.7
					c-2,5.5-4.8,10.8-8.5,15.3c-10.4,12.8-29.6,71.5,31.1,132.5c2.6,2.6,7,0.2,6.1-3.4c-5.2-22.4-13-68,9.4-67.9
					c5.4,0,10.4,2.9,13.6,7.3l7.8,10.7c2.1,2.9,6.1,3.6,9.1,1.6l0,0C443.3,991.1,444.3,987.9,443.4,985z"/><g><path fill="#f7c19b" d="M991.7,1293.2l-2.7-2.7l1-1.3l3.6-4.9l10.9-10.9l3.6,3.6c0.1,0.1,0.2,0.2,0.2,0.2
							c1.4,1.4,2.6,3.1,3.5,4.8l1.1,2l9.2,17.2l7,13.2l-13.2-7l-18.6-9.9l-0.5-0.3c-1.7-0.9-3.3-2-4.6-3.3c0,0-0.1-0.1-0.1-0.1
							C992,1293.5,991.8,1293.3,991.7,1293.2z"/><path fill="#ffa726" d="M834.8,1120l8.2-8.2l165.1,165.1c2.2,2.2,2.2,5.8,0,8.1l-0.1,0.1c-2.2,2.2-5.8,2.2-8.1,0L834.8,1120z"/><path fill="#f7991c" d="M826.6,1128.2l8.2-8.2l165.1,165.1c2.2,2.2,2.2,5.8,0,8.1l-0.1,0.1c-2.2,2.2-5.8,2.2-8.1,0L826.6,1128.2z
							"/><path fill="#58595b" d="M1016,1307.3c-0.7-4.7,1.4-6.8,6.1-6.1l7,13.2L1016,1307.3z"/><rect width="23.1" height="19.2" x="816.5" y="1103.6" fill="#eee" transform="rotate(134.999 828.03 1113.19)"/><rect width="23.1" height="5" x="813.7" y="1107.9" fill="#e0e0e0" transform="rotate(134.999 825.267 1110.426)"/><rect width="23.1" height="5" x="819.2" y="1113.4" fill="#e0e0e0" transform="rotate(134.999 830.793 1115.952)"/><path fill="#ef5350" d="M807.6,1092.8L807.6,1092.8c4.5-4.5,11.8-4.5,16.4,0l5.4,5.4l-16.4,16.4l-5.4-5.4
					C803.1,1104.6,803.1,1097.3,807.6,1092.8z"/></g></g></svg>